<?xml version="1.0" encoding="UTF-8"?>
<svg xmlns="http://www.w3.org/2000/svg" xmlns:xlink="http://www.w3.org/1999/xlink" width="20pt" height="22pt" viewBox="0 0 20 22" version="1.1">
<g id="surface1">
<path style=" stroke:none;fill-rule:nonzero;fill:rgb(34.509804%,34.509804%,34.509804%);fill-opacity:1;" d="M 19.992188 16.523438 L 9.996094 22.03125 L 0 16.523438 L 0 5.507812 L 9.996094 0 L 19.992188 5.507812 Z M 19.992188 16.523438 "/>
<path style=" stroke:none;fill-rule:nonzero;fill:rgb(100%,100%,100%);fill-opacity:1;" d="M 5.613281 10.839844 L 8.976562 14.265625 L 7.355469 10.839844 Z M 9.996094 14.816406 L 11.878906 10.839844 L 8.113281 10.839844 Z M 7.371094 10.179688 L 8.472656 8.203125 L 7.058594 8.203125 L 5.503906 10.179688 Z M 11.015625 14.265625 L 14.378906 10.839844 L 12.636719 10.839844 Z M 8.152344 10.179688 L 11.835938 10.179688 L 10.734375 8.203125 L 9.253906 8.203125 Z M 12.617188 10.179688 L 14.488281 10.179688 L 12.933594 8.203125 L 11.515625 8.203125 Z M 13.378906 7.679688 L 15.453125 10.316406 C 15.503906 10.378906 15.523438 10.449219 15.523438 10.53125 C 15.519531 10.609375 15.488281 10.675781 15.429688 10.738281 L 10.246094 16.011719 C 10.183594 16.082031 10.101562 16.117188 9.996094 16.117188 C 9.890625 16.117188 9.804688 16.082031 9.742188 16.011719 L 4.5625 10.738281 C 4.5 10.679688 4.472656 10.609375 4.46875 10.53125 C 4.464844 10.449219 4.488281 10.378906 4.539062 10.316406 L 6.613281 7.679688 C 6.675781 7.585938 6.765625 7.542969 6.886719 7.542969 L 13.105469 7.542969 C 13.222656 7.542969 13.316406 7.585938 13.378906 7.679688 Z M 13.378906 7.679688 "/>
</g>
</svg>
